HIERARCHY
ROOT Spine
{
    OFFSET 0.0 0.0 -0.0
    CHANNELS 6 Xposition Yposition Zposition Zrotation Xrotation Yrotation
    JOINT ShoulderCenter
    {
        OFFSET 0.0 30.673179626464844 0.0
        CHANNELS 3 Zrotation Xrotation Yrotation
        JOINT LeftShoulder
        {
            OFFSET 18.621719360351562 0.0 0.0
            CHANNELS 3 Zrotation Xrotation Yrotation
            JOINT LeftElbow
            {
                OFFSET 24.321170806884766 0.0 0.0
                CHANNELS 3 Zrotation Xrotation Yrotation
                JOINT LeftHand
                {
                    OFFSET 29.604454040527344 0.0 0.0
                    CHANNELS 3 Zrotation Xrotation Yrotation
                    End Site
                    {
                        OFFSET 11.841781616210938 0.0 0.0
                    }
                }
            }
        }
        JOINT RightShoulder
        {
            OFFSET -18.621719360351562 0.0 0.0
            CHANNELS 3 Zrotation Xrotation Yrotation
            JOINT RightElbow
            {
                OFFSET -24.321170806884766 0.0 0.0
                CHANNELS 3 Zrotation Xrotation Yrotation
                JOINT RightHand
                {
                    OFFSET -29.604454040527344 0.0 0.0
                    CHANNELS 3 Zrotation Xrotation Yrotation
                    End Site
                    {
                        OFFSET -11.841781616210938 0.0 0.0
                    }
                }
            }
        }
        End Site
        {
            OFFSET 0.0 12.269272804260254 0.0
        }
    }
    JOINT LeftHip
    {
        OFFSET 19.665623757543337 -19.665623757543337 0.0
        CHANNELS 3 Zrotation Xrotation Yrotation
        JOINT LeftKnee
        {
            OFFSET 0.0 -35.15263366699219 0.0
            CHANNELS 3 Zrotation Xrotation Yrotation
            JOINT LeftFoot
            {
                OFFSET 0.0 -36.91033935546875 0.0
                CHANNELS 3 Zrotation Xrotation Yrotation
                End Site
                {
                    OFFSET 0.0 0.0 14.764137268066406
                }
            }
        }
    }
    JOINT RightHip
    {
        OFFSET -19.665623757543337 -19.665623757543337 0.0
        CHANNELS 3 Zrotation Xrotation Yrotation
        JOINT RightKnee
        {
            OFFSET 0.0 -35.15263366699219 0.0
            CHANNELS 3 Zrotation Xrotation Yrotation
            JOINT RightFoot
            {
                OFFSET 0.0 -36.91033935546875 0.0
                CHANNELS 3 Zrotation Xrotation Yrotation
                End Site
                {
                    OFFSET 0.0 0.0 14.764137268066406
                }
            }
        }
    }
}
MOTION
Frames: 10
Frame Time: 0.03333333333333333
-50.400001525878906 1.7999999523162842 24.200000762939453 -1.6846870862587913 -0.7485972875740169 -94.86527076215492 1.24034412915635e-07 -1.1776169183765172e-07 1.399725413823106 113.96835579509255 34.67379915132148 159.65692226380344 -2.6301417814723e-06 -2.551679562217611e-06 25.10645018745418 3.1805546814635164e-15 -6.361109362927033e-15 1.7655625192200634e-31 -110.23391568705222 -0.4627807765868809 -171.7669980509293 9.886225193380326e-07 1.6485400865703413e-06 -34.208693196708694 -3.180554681463516e-15 -9.54166404439055e-15 6.3611093629270335e-15 -13.438126928757782 5.4807232368084104 -13.806208985376529 -2.079149416550105 -5.928183811245286 4.118353178084741 3.586298867165754e-32 -1.5902773407317582e-15 2.584200678689107e-15 3.585163915062648 -8.575628358147496 1.7923500152515075 -3.7831833854059926 8.236858600339911 9.199956017306647 1.9878466759146977e-16 -5.398845349909984e-33 -3.1122224519789486e-15
-51.400001525878906 2.0 24.0 -2.0587624051221343 -1.1225784034809023 -95.1777845413181 7.83261830241473e-08 -8.631471087309975e-08 0.9165719661315661 113.55476387521794 38.35567562620905 161.38528044358435 8.085168237283392e-07 3.1224607241425014e-06 22.78814443681972 -1.5902773407317584e-15 0.0 0.0 -109.43306679710058 -9.213042183221088 -171.13712328214427 -1.1457295468394756e-06 7.121246381606517e-07 -33.37086460149584 0.0 0.0 0.0 -13.898086832390783 7.238096038132505 -14.525466496283656 -0.5303065962687965 -6.873879067102487 5.028286288379549 1.241411146326607e-31 1.5902773407317584e-15 -8.94531004161614e-15 4.020314572483559 -6.354428791892315 3.4023093562021614 -2.3686489725597073 -5.966522413410029 -6.17592179811909 2.385416011097637e-15 8.276074308844047e-32 3.975693351829395e-15
-52.60000228881836 1.7999999523162842 23.399999618530273 -3.5414713821562893 -0.372545753545014 -94.92758942087657 1.0207006409694939e-07 -1.965313129487488e-07 1.1438231290713468 110.1793398609318 32.70295890522339 164.83995133312825 2.697910872794035e-06 9.475631988826304e-06 23.178044064078524 1.5902773407317588e-15 -8.827812596100317e-32 -6.361109362927035e-15 -107.49224409392193 -14.891735371668188 -171.2094981217576 -4.824946517683914e-08 2.703912193461888e-07 -32.803155203243634 0.0 0.0 6.361109362927033e-15 -13.646762422581537 11.597906809515221 -16.520366709580717 -0.9620972254287935 -9.164063264687233 6.0449310058688575 0.0 0.0 -7.951386703658792e-16 4.1632017876407215 -1.7799350406235452 7.252858366871548 -0.20485221936804004 -12.13684792158597 -12.076233668266333 -3.310429723537619e-32 2.385416011097637e-15 1.5902773407317582e-15
-54.10000228881836 1.600000023841858 22.5 -5.4138258706643025 0.37280776796572407 -94.90492446052768 -1.342580464367572e-07 3.839624083792047e-07 1.850208946715892 105.78001207273425 25.09944078011677 168.5360934934967 1.5272187139702705e-06 5.839457211714254e-06 24.964103354502782 4.770832022195275e-15 0.0 0.0 -105.65634227490429 -14.330672411652898 -172.6726625282157 1.2878522313885273e-06 5.438709895859476e-06 -30.52872020511453 0.0 0.0 0.0 -12.931350147160813 17.72171236935227 -20.17179448718794 -1.6539862678398793 -12.493567864282156 7.140298465831923 -5.517382872562698e-32 3.1805546814635164e-15 1.9878466759146976e-15 5.0948332970173125 5.848007696726485 15.18279573957132 -1.218958403295742 -17.896436640492364 -17.478581427254547 -1.5902773407317584e-15 1.5902773407317584e-15 5.764755360152624e-15
-55.19999694824219 2.0 22.0 -7.078912790018272 -0.18581370455515245 -95.21991278056103 -1.6579747283804053e-07 3.575442824533203e-07 1.8636845860720699 102.78769587708797 28.00428543853293 170.70362684048996 4.7489343173765284e-06 7.731708667276741e-06 23.89598998281718 -4.770832022195275e-15 2.648343778830095e-31 -6.3611093629270335e-15 -105.67736016252329 -12.718750968283207 -174.032641061535 9.477321047793152e-07 -3.870850705147694e-06 -28.544255059654052 -3.180554681463516e-15 3.180554681463516e-15 8.827812596100317e-32 -13.221577880289688 21.5441937388926 -23.146908140532165 -1.3161187727074342 -13.660099946358299 7.9263143090890456 7.951386703658792e-16 4.138037154422024e-33 5.963540027744094e-16 4.587279692899059 8.626548792235013 17.263069358770128 -1.9165328505452457 -18.605053163713823 -17.410583383571606 -3.034560579909484e-32 7.951386703658792e-16 4.373262687012335e-15
-56.099998474121094 1.899999976158142 21.600000381469727 -8.182519249643844 -3.346382966237184e-07 -95.03671464822362 -2.8079010490686923e-07 2.794168786899513e-07 1.0145693446524728 104.12392543091687 32.989749744646 169.61911255325566 2.974809712637712e-06 6.132305368071e-06 22.556377042331658 -6.3611093629270335e-15 0.0 0.0 -106.43584744167006 -11.192925058955728 -174.21122456514303 -4.2049183151997725e-06 -4.115753594932589e-07 -27.948201675229416 -3.1805546814635164e-15 -1.7655625192200634e-31 6.361109362927033e-15 -12.996135309427235 22.974495562077596 -23.943016546853723 -1.0008730183382892 -12.779999869946185 7.606809846767805 -7.951386703658792e-16 4.1380371544220234e-32 -5.9635400277440935e-15 4.879349679049615 12.334274172347527 19.44845291455024 -2.5871084851556287 -21.504030227275024 -19.219451645977546 -7.951386703658792e-16 1.5902773407317584e-15 -2.9817700138720468e-15
-56.69999694824219 1.7000000476837158 21.19999885559082 -8.182518277346635 0.370665807517104 -94.45339492085515 -4.4056714266261747e-08 -6.668821975682296e-07 0.14544192418365104 108.65100607351073 33.49239308066689 166.4966365522807 2.7985237180327283e-06 1.4718095964196999e-06 23.210507527739114 7.951386703658792e-15 6.3611093629270335e-15 6.361109362927033e-15 -107.28145470927971 -9.48913354572891 -173.23527979125134 6.326741314622389e-07 4.6366434972194725e-06 -28.392532231988632 -3.1805546814635164e-15 -6.3611093629270335e-15 6.3611093629270335e-15 -12.20775179740057 24.052973624154898 -25.103638863754316 -0.8207179966514094 -13.196382631061077 7.984166735940961 7.951386703658792e-16 -6.896728590703373e-33 -9.93923337957349e-16 5.451145584319442 13.943197510007664 20.54323254321898 -3.178151055105763 -23.237516846425002 -20.305348585948252 -2.782985346280577e-15 1.5902773407317584e-15 3.1805546814635168e-15
-57.099998474121094 1.600000023841858 21.0 -7.790150744964576 0.36981052800583575 -95.20378244722617 -7.716820806690077e-08 -6.24797444122679e-08 1.1881981352428186 111.90302399105092 34.166163302866416 163.69167734325262 8.788737274462281e-07 3.789088073245649e-06 26.16231733325174 3.1805546814635168e-15 -6.3611093629270335e-15 1.7655625192200634e-31 -107.92803999718966 -9.199067002263826 -171.22348641927843 1.899960472624865e-06 -2.134723802962903e-06 -29.29852639610354 -3.1805546814635183e-15 -6.361109362927035e-15 -6.361109362927035e-15 -12.065836724382482 25.42523736788596 -26.071750993591742 -1.0941340286997643 -14.050958425609654 8.353563160209186 -1.5902773407317584e-15 -1.1310634888753532e-31 8.150171371250262e-15 5.799072757880114 13.495987790404339 19.62685627801841 -2.730698641164444 -22.885735921705532 -19.381844018894146 -3.975693351829395e-16 1.9878466759146976e-15 -1.689669674527493e-15
-57.30000305175781 1.7999999523162842 20.900001525878906 -7.263254422699587 0.3714697729226446 -95.61227860639076 -8.090199190939987e-07 1.1260225756121648e-06 1.7360903090790438 113.59488217621127 33.673190610454995 161.53170444525534 1.262979300890617e-06 2.402574056816264e-06 27.713811933266882 0.0 0.0 0.0 -107.86494620902147 -8.10619827855138 -170.00468851977422 -8.867892385154145e-07 -3.4040195046140438e-06 -27.709901230140996 -3.1805546814635164e-15 -6.3611093629270335e-15 6.3611093629270335e-15 -11.82420016056644 25.93827127461461 -26.412112589885968 -2.8596879642150808 -14.280582418310114 7.878083801004555 -3.975693351829395e-15 -1.241411146326607e-31 3.578124016646456e-15 5.757051859920761 12.854669910892158 19.317586006600568 -2.199717877590388 -22.841131472525028 -19.475337433119332 -1.1927080055488192e-15 -3.975693351829397e-16 -1.8884543421189634e-15
-57.400001525878906 1.7999999523162842 20.900001525878906 -6.7098405506154055 2.805692586446338e-07 -94.90928198716881 -7.564888314257279e-08 1.586211963450858e-07 1.2013843037940468 113.44295453534255 33.77914450832832 160.82012435688205 -3.885182894609268e-06 8.596587244972213e-07 26.52597810622908 4.770832022195275e-15 0.0 0.0 -107.50940673222647 -7.08810250212947 -169.27366821702174 5.532482660538897e-07 -1.358461746465293e-06 -25.003177743675668 3.1805546814635164e-15 3.1805546814635164e-15 -8.827812596100317e-32 -11.947024679056646 25.37988827624954 -26.091328789796474 -2.7151417372012916 -14.683912331225663 8.345131687533133 -3.1805546814635168e-15 -1.5902773407317584e-15 7.951386703658792e-16 5.568784116410993 12.363230410652722 18.52252817597153 -2.183697479499164 -23.00218046482591 -19.502953788617656 -1.2414111463266072e-32 1.1927080055488188e-15 1.1927080055488188e-15
